# xmcd
#
# Track frame offsets:
#	150
#	11339
#	28631
#	44952
#	61232
#	73254
#	87323
#	101305
#	118755
#	137009
#	153792
#	171612
#	187752
#	209413
#	222042
#	236794
#	252105
#	263722
#	282966
#	299233
#	314691
#
# Disc length: 4384 seconds
#
# Revision: 0
# Processed by: cddbd v1.5.1PL0 Copyright (c) Steve Scherf et al.
# Submitted via: dBpowerAMP V4.0
#
DISCID=42111e15
DTITLE=Various Artist - 21 Best Country Collection
DYEAR=2000
DGENRE=Country
TTITLE0=Lullaby
TTITLE1=Love me
TTITLE2=I told you so
TTITLE3=Me and you
TTITLE4=Baby your baby
TTITLE5=I volunteer
TTITLE6=One friend
TTITLE7=Meet me in Montana
TTITLE8=Maggie
TTITLE9=I wsh i could
TTITLE10=Amazed
TTITLE11=You were mine
TTITLE12=Please remember me
TTITLE13=Amarillo by morning
TTITLE14=Somewere in my broken heart
TTITLE15=She's not cryng anymore
TTITLE16=Line on love
TTITLE17=Neon moon
TTITLE18=Livin' on love
TTITLE19=I meant to do that
TTITLE20=Coubtry club
EXTD=Tram
EXTT0=
EXTT1=
EXTT2=
EXTT3=
EXTT4=
EXTT5=
EXTT6=
EXTT7=
EXTT8=
EXTT9=
EXTT10=
EXTT11=
EXTT12=
EXTT13=
EXTT14=
EXTT15=
EXTT16=
EXTT17=
EXTT18=
EXTT19=
EXTT20=
PLAYORDER=
